# xmcd CD database file
#
# Track frame offsets:
#	150
#	11757
#	23293
#	39380
#	53138
#	71024
#	83070
#	96127
#	110363
#	127941
#	140563
#	154421
#
# Disc length: 2201 seconds
#
# Revision: 2
# Processed by: cddbd v1.5.2PL0 Copyright (c) Steve Scherf et al.
# Submitted via: CDex 1.70beta2
#
DISCID=9208970c
DTITLE=The Bluegrass Album Band - Songs Of Bill Monroe
DYEAR=1996
DGENRE=Bluegrass
TTITLE0=On My Way Back To The Old Home
TTITLE1=I Believe in You Darling
TTITLE2=Cheyenne
TTITLE3=Letter From My Darlin'
TTITLE4=Lonesome Moonlight Waltz
TTITLE5=When You Are Lonely
TTITLE6=Sitting Alone In The Moonlight
TTITLE7=Molly and Tenbrooks
TTITLE8=On The Old Kentucky Shore
TTITLE9=Brown County Breakdown
TTITLE10=Toy Heart
TTITLE11=River Of Death
EXTD=YEAR: 1996
EXTT0=
EXTT1=
EXTT2=
EXTT3=
EXTT4=
EXTT5=
EXTT6=
EXTT7=
EXTT8=
EXTT9=
EXTT10=
EXTT11=
PLAYORDER=
